# xmcd
#
# Track frame offsets: 
#        150
#        18390
#        41120
#        67042
#
# Disc length: 1134 seconds
#
# Revision: 3
# Processed by: cddbd v1.5.2PL0 Copyright (c) Steve Scherf et al.
# Submitted via: ExactAudioCopyFreeDBPlugin 1.0
#
DISCID=32046c04
DTITLE=Utada Hikaru - Colors
DYEAR=2003
DGENRE=J-Pop
TTITLE0=Colors
TTITLE1=Simple and Clean
TTITLE2=Simple and Clean (PLANITb Remix)
TTITLE3=Colors (Original Karaoke)
EXTD=
EXTT0=
EXTT1=
EXTT2=
EXTT3=
PLAYORDER=
